# xmcd
#
# Track frame offsets:
#	150
#	11119
#	32131
#	44923
#	58085
#	73243
#	87435
#	101806
#	113861
#	124613
#	138438
#	152756
#
# Disc length: 2207 seconds
#
# Revision: 1
# Processed by: cddbd v1.5.2PL0 Copyright (c) Steve Scherf et al.
# Submitted via: audiograbber 1.82.02
#
DISCID=b2089d0c
DTITLE=Varius -  Νησιώτικα παραδοσιακά - Νο 3
DYEAR=1900
DGENRE=Νησιώτικα
TTITLE0=Κλώσσα - Σταμάτη Ροδίτη
TTITLE1=Το Ρηνάκι - Σταμάτη Ροδίτη
TTITLE2=Σούστα Δωδεκανήσου - Σταμάτη Ροδίτη
TTITLE3=Μα είχα μιαν αγάπη - Σταμάτη Ροδίτη
TTITLE4=Παραξυπνήματα - Σταμάτη Ροδίτη
TTITLE5=Πηδηχτός χορός και Σέρβικος - Σταμάτη Ροδίτη
TTITLE6=Πολίτισσα - Νικολέτα Ροδίτη
TTITLE7=Σούστα Νισύρου - Νικολέτα Ροδίτη
TTITLE8=Ομπι ομπιμπι - Νικολέτα Ροδίτη
TTITLE9=Το τάκο μια το τακο δυό - Νικολέτα Ροδίτη
TTITLE10=Μπάλλος και μοναχικός - Νικολέτα Ροδίτη
TTITLE11=Μπάρμπα Θοδωρής - Νικολέτα Ροδίτη
EXTD=
EXTT0=
EXTT1=
EXTT2=
EXTT3=
EXTT4=
EXTT5=
EXTT6=
EXTT7=
EXTT8=
EXTT9=
EXTT10=
EXTT11=
PLAYORDER=
